# xmcd
#
# Track frame offsets: 
#        150
#        15112
#        28992
#        47760
#        66267
#        83897
#        100575
#        114687
#        129197
#        151257
#
# Disc length: 2216 seconds
#
# Revision: 0
# Processed by: cddbd v1.5.2PL0 Copyright (c) Steve Scherf et al.
# Submitted via: ExactAudioCopy v0.95b3
#
DISCID=7208a60a
DTITLE=Diamond Rio - SuperHits
DYEAR=2007
DGENRE=Country
TTITLE0=1. Meet in the Middle
TTITLE1=2. Norma Jean Riley
TTITLE2=3. We All Fall Down
TTITLE3=4. How Your Love Makes Me Feel
TTITLE4=5. A Better Idea
TTITLE5=6. I Know How The River Feels
TTITLE6=7. Big Ol'  Fire
TTITLE7=8. Holdin'
TTITLE8=9. Kentucky Mine
TTITLE9=10. Rural Philharmonic
EXTD=
EXTT0=
EXTT1=
EXTT2=
EXTT3=
EXTT4=
EXTT5=
EXTT6=
EXTT7=
EXTT8=
EXTT9=
PLAYORDER=
